<?xml version="1.0" encoding="iso-8859-1"?>
<!-- Generator: Adobe Illustrator 18.1.1, SVG Export Plug-In . SVG Version: 6.00 Build 0)  -->
<svg version="1.1" id="Capa_1" xmlns="http://www.w3.org/2000/svg" xmlns:xlink="http://www.w3.org/1999/xlink" x="0px" y="0px"
	 viewBox="0 0 379.999 379.999" style="enable-background:new 0 0 379.999 379.999;" xml:space="preserve">
<g>
	<g id="Layer_1_5_">
		<g>
			<path d="M327.874,142.167l-30.055,3.713l-28.975-70.559c-22.693-44.579-61.16-28.75-95.164,5.252l-60.021,58.5l0.273,0.279
				c-3.609,3.285-6.516,7.45-8.338,12.338c-6.104,16.384,2.23,34.613,18.613,40.718l91.082,33.936l-57.859,61.04
				c-3.486,3.701-5.336,8.466-5.475,13.29L28.181,234.403c-3.605-1.901-8.068-0.52-9.971,3.086c-1.9,3.605-0.52,8.07,3.086,9.97
				l218.533,116.503c0.098,0.052,0.287,0.157,0.57,0.304c6.17,3.253,55.121,27.947,82.834,8.071
				c3.313-2.375,4.07-6.986,1.695-10.298c-2.377-3.313-6.986-4.07-10.297-1.696c-17.828,12.786-54.943-2.432-67.836-9.393
				l-63.018-33.406c0.514-0.371,1.018-0.763,1.504-1.189l93.553-81.943c2.467-2.18,4.639-4.964,6.137-8.127
				c5.918-12.505,0.578-27.439-11.928-33.357l-2.078-0.984l-61.148-28.938l33.41-32.675l21.611,46.93l1.17,2.541
				c4.031,8.69,14.123,12.974,23.275,9.612l45.939-16.875c6.709-2.463,11.1-9.294,10.186-16.691
				C344.345,147.228,336.493,141.103,327.874,142.167z"/>
			<path d="M362.618,46.456c-0.832-26.475-22.969-47.263-49.443-46.432c-26.477,0.831-47.264,22.968-46.434,49.441
				c0.832,26.478,22.969,47.265,49.443,46.434C342.659,95.067,363.448,72.931,362.618,46.456z"/>
		</g>
	</g>
</g>
<g>
</g>
<g>
</g>
<g>
</g>
<g>
</g>
<g>
</g>
<g>
</g>
<g>
</g>
<g>
</g>
<g>
</g>
<g>
</g>
<g>
</g>
<g>
</g>
<g>
</g>
<g>
</g>
<g>
</g>
</svg>
